# xmcd CD database file
#
# Track frame offsets:
#	187
#	21012
#	41192
#	61582
#	80805
#	99297
#	122787
#	141302
#	159787
#	177422
#	192890
#	213320
#
# Disc length: 3147 seconds
#
# Revision: 5
# Processed by: cddbd v1.5.2PL0 Copyright (c) Steve Scherf et al.
# Submitted via: CDex 1.51
#
DISCID=9e0c490c
DTITLE=Dr. John - Television
DYEAR=1900
DGENRE=R&B
TTITLE0=Television
TTITLE1=Lissen
TTITLE2=Limbo
TTITLE3=Witchy Red
TTITLE4=Shadows
TTITLE5=Shut D Fonk Up
TTITLE6=Thank You (Falletin Me Be Mice Elf Again))
TTITLE7=Spaceship Relationship
TTITLE8=Hold It
TTITLE9=Money (That's What I Want)
TTITLE10=U Lie 2 Much
TTITLE11=Same Day Service
EXTD=
EXTT0=
EXTT1=
EXTT2=
EXTT3=
EXTT4=
EXTT5=
EXTT6=
EXTT7=
EXTT8=
EXTT9=
EXTT10=
EXTT11=
PLAYORDER=
